<svg xmlns="http://www.w3.org/2000/svg" viewBox="0 0 226 58" width="226" height="58">
	<style>
		tspan { white-space:pre }
		.shp0 { fill: #ff6cc9 } 
		.shp1 { fill: #f5f5f5 } 
		.shp2 { fill: #44525a } 
	</style>
	<g id="Background">
		<path id="Path 1" class="shp0" d="M107.5 5.5C109.7 7.38 116.76 13.1 123.19 18.21C129.63 23.32 134.89 27.73 134.89 28C134.89 28.27 127.86 34.13 119.28 41L103.67 53.5L122 54C146.84 34.24 154.04 28.27 154.02 28C154 27.73 146.9 21.78 138.24 14.78L122.5 2.06L103.5 2.08" />
		<path id="Path 2" class="shp1" d="M58 28C58 44.33 58.08 45 60 45C61.92 45 62 44.33 62 28C62 11.67 61.92 11 60 11C58.08 11 58 11.67 58 28ZM69 28C69 44.33 69.08 45 71 45C72.59 45 73.05 44.25 73.25 41.33C73.39 39.31 73.95 37.49 74.5 37.28C75.05 37.08 76.74 38.73 78.25 40.96C79.92 43.42 81.78 45 83 45C84.1 45 85 44.77 85 44.5C85 44.23 83.65 41.98 82 39.5C80.35 37.02 79 34.66 78.99 34.25C78.99 33.84 80.45 32.29 82.24 30.82C85.01 28.54 85.23 28.05 83.75 27.57C82.65 27.21 80.33 28.3 77.5 30.5L73 34C73 11.67 72.88 11 71 11C69.08 11 69 11.67 69 28ZM5 15C5 16.67 5.67 17 9 17L13 17L13 45L18 45L18 17C25.33 17 26 16.67 26 15C26 13.13 25.33 13 15.5 13C5.67 13 5 13.13 5 15ZM157.96 28.75C158 44.32 158.08 45 160 45C161.86 45 162 44.34 161.99 35.25L161.99 25.5C170.44 37.13 173.14 40.39 173.45 40.25C173.75 40.11 176.48 36.51 179.51 32.25L185.01 24.5C185 44.34 185.13 45 187 45C188.92 45 189 44.33 189.02 28.75L189.04 12.5C177.38 29.16 173.78 34 173.5 34C173.22 34 169.61 29.16 165.46 23.25L157.93 12.5M198.5 13.67C198.04 14.03 197.74 21.23 197.83 29.67L198 45C219.33 45 220 44.88 220 43C220 41.16 219.33 41 211.5 41L203 41L203 31C216.33 31 217 30.81 217 29C217 27.19 216.33 27 210 27L203 27L203 17C218.33 17 219 16.83 219 15C219 13.14 218.33 13 209.17 13C203.76 13 198.96 13.3 198.5 13.67ZM94.3 17.28C93.1 17.97 91.4 19.66 90.53 21.02C89.53 22.59 89.16 24.61 89.52 26.5C89.84 28.15 90.64 30.07 91.3 30.76C92.13 31.63 92.89 31.71 93.75 31.01C94.67 30.27 94.73 29.28 93.98 27.25C93.2 25.14 93.32 23.97 94.48 22.25C95.38 20.92 97.02 20 98.5 20C99.88 20 101.67 20.68 102.5 21.5C103.33 22.32 104 24.24 104.01 25.75C104.01 27.26 103.27 29.63 102.36 31C101.45 32.38 98.19 36.09 95.11 39.26L89.5 45.02C108.33 45 109 44.86 109 43C109 41.3 108.33 41 104.5 41C102.03 41 99.99 40.66 99.97 40.25C99.95 39.84 100.9 38.6 102.07 37.5C103.25 36.4 105.06 33.81 106.11 31.75C107.15 29.69 108 26.43 108 24.5C108 22.1 107.21 20.21 105.5 18.5C103.85 16.85 101.9 16.01 99.75 16.01C97.96 16.02 95.51 16.59 94.3 17.28ZM36.34 26.93C35.15 27.37 33.35 28.74 32.34 29.97C31.27 31.27 30.5 33.8 30.5 36.02C30.5 38.73 31.23 40.6 33 42.45C34.9 44.43 36.47 45.05 39.55 45.03C41.78 45.01 44.2 44.44 44.93 43.75C45.99 42.75 46.33 42.75 46.63 43.75C46.83 44.44 47.9 45 49 45C50.85 45 51 44.33 51 36C51 27.67 50.85 27 49 27C47.9 27 46.86 27.56 46.7 28.25C46.47 29.16 45.73 29.02 43.95 27.74C42.6 26.78 40.83 26.02 40 26.06C39.17 26.09 37.53 26.49 36.34 26.93Z" />
		<path id="Path 3" class="shp2" d="M36 31.2C35.23 31.86 34.68 33.77 34.77 35.45C34.86 37.13 35.74 39.28 36.72 40.22C37.7 41.17 39.51 41.96 40.75 41.97C41.99 41.99 43.9 41.1 45 40C46.1 38.9 47 37.21 47.01 36.25C47.01 35.29 46.34 33.49 45.51 32.25C44.45 30.68 43.01 30 40.7 30C38.88 30 36.77 30.54 36 31.2Z" />
	</g>
</svg>